<?xml version="1.0" encoding="UTF-8"?>
<svg width="115px" height="26px" viewBox="0 0 115 26" version="1.1" xmlns="http://www.w3.org/2000/svg" xmlns:xlink="http://www.w3.org/1999/xlink">
    <!-- Generator: Sketch 49.3 (51167) - http://www.bohemiancoding.com/sketch -->
    <title>logo/veern/outline-blue</title>
    <desc>Created with Sketch.</desc>
    <defs></defs>
    <g id="Page-1" stroke="none" stroke-width="1" fill="none" fill-rule="evenodd">
        <g id="Main" transform="translate(-137.000000, -38.000000)">
            <g id="Navbar" transform="translate(137.000000, 0.000000)">
                <g id="logo/veern/outline-blue" transform="translate(0.000000, 38.000000)">
                    <path d="M35.5703327,21.3076923 L29.7476341,3.96503497 L34.90787,3.96503497 L37.1393233,12.1468531 C37.3717676,13.0093283 37.5983973,13.8892729 37.8192193,14.7867133 C38.0400413,15.6841537 38.266671,16.587408 38.4991152,17.4965035 L38.6385811,17.4965035 C38.8477809,16.587408 39.0627886,15.6841537 39.2836106,14.7867133 C39.5044326,13.8892729 39.7310623,13.0093283 39.9635065,12.1468531 L42.2298263,3.96503497 L47.145997,3.96503497 L41.4976307,21.3076923 L35.5703327,21.3076923 Z M57.2582386,21.7272727 C56.0262842,21.7272727 54.8757026,21.5233121 53.8064592,21.1153846 C52.7372158,20.7074572 51.8074528,20.1130575 51.0171425,19.3321678 C50.2268321,18.5512781 49.6108642,17.6014042 49.1692202,16.4825175 C48.7275761,15.3636308 48.5067574,14.0815923 48.5067574,12.6363636 C48.5067574,11.2377552 48.7391982,9.97319913 49.2040866,8.84265734 C49.6689751,7.71211556 50.279132,6.75641416 51.0345757,5.97552448 C51.7900194,5.19463479 52.6558612,4.59440769 53.6321269,4.17482517 C54.6083926,3.75524266 55.6195098,3.54545455 56.6655088,3.54545455 C57.8974632,3.54545455 58.9725016,3.75524266 59.8906563,4.17482517 C60.8088109,4.59440769 61.5758654,5.17715245 62.1918425,5.92307692 C62.8078197,6.6690014 63.2668902,7.54894598 63.5690677,8.56293706 C63.8712452,9.57692815 64.0223316,10.6783157 64.0223316,11.8671329 C64.0223316,12.3333357 63.9990876,12.7762217 63.9525987,13.1958042 C63.9061099,13.6153867 63.8596217,13.9300689 63.8131329,14.1398601 L53.4577946,14.1398601 C53.6902388,15.3986077 54.2074195,16.3251719 55.009352,16.9195804 C55.8112846,17.513989 56.7933467,17.8111888 57.9555678,17.8111888 C59.1875222,17.8111888 60.4310801,17.4265773 61.6862789,16.6573427 L63.3947354,19.7692308 C62.5114473,20.3752944 61.5293852,20.8531451 60.4485196,21.2027972 C59.367654,21.5524493 58.3042376,21.7272727 57.2582386,21.7272727 Z M53.4229281,10.7482517 L59.6640243,10.7482517 C59.6640243,9.76922587 59.4432056,8.97669301 59.0015616,8.37062937 C58.5599175,7.76456573 57.8161072,7.46153846 56.7701082,7.46153846 C55.9565534,7.46153846 55.2417982,7.72960105 54.625821,8.26573427 C54.0098438,8.80186748 53.6088835,9.62936503 53.4229281,10.7482517 Z M75.2851663,21.7272727 C74.053212,21.7272727 72.9026303,21.5233121 71.8333869,21.1153846 C70.7641435,20.7074572 69.8343806,20.1130575 69.0440702,19.3321678 C68.2537599,18.5512781 67.6377919,17.6014042 67.1961479,16.4825175 C66.7545039,15.3636308 66.5336852,14.0815923 66.5336852,12.6363636 C66.5336852,11.2377552 66.7661259,9.97319913 67.2310144,8.84265734 C67.6959028,7.71211556 68.3060597,6.75641416 69.0615034,5.97552448 C69.8169472,5.19463479 70.6827889,4.59440769 71.6590546,4.17482517 C72.6353204,3.75524266 73.6464376,3.54545455 74.6924365,3.54545455 C75.9243909,3.54545455 76.9994293,3.75524266 77.917584,4.17482517 C78.8357387,4.59440769 79.6027931,5.17715245 80.2187703,5.92307692 C80.8347475,6.6690014 81.2938179,7.54894598 81.5959954,8.56293706 C81.8981729,9.57692815 82.0492594,10.6783157 82.0492594,11.8671329 C82.0492594,12.3333357 82.0260153,12.7762217 81.9795264,13.1958042 C81.9330376,13.6153867 81.8865495,13.9300689 81.8400606,14.1398601 L71.4847223,14.1398601 C71.7171666,15.3986077 72.2343472,16.3251719 73.0362798,16.9195804 C73.8382123,17.513989 74.8202744,17.8111888 75.9824955,17.8111888 C77.2144499,17.8111888 78.4580078,17.4265773 79.7132066,16.6573427 L81.4216631,19.7692308 C80.5383751,20.3752944 79.556313,20.8531451 78.4754473,21.2027972 C77.3945817,21.5524493 76.3311653,21.7272727 75.2851663,21.7272727 Z M71.4498559,10.7482517 L77.690952,10.7482517 C77.690952,9.76922587 77.4701333,8.97669301 77.0284893,8.37062937 C76.5868453,7.76456573 75.8430349,7.46153846 74.7970359,7.46153846 C73.9834812,7.46153846 73.2687259,7.72960105 72.6527487,8.26573427 C72.0367715,8.80186748 71.6358113,9.62936503 71.4498559,10.7482517 Z M85.5717402,21.3076923 L85.5717402,3.96503497 L89.7557153,3.96503497 L90.1043799,7.00699301 L90.2438457,7.00699301 C90.8714451,5.81817587 91.6268775,4.94405874 92.5101655,4.38461538 C93.3934536,3.82517203 94.2767284,3.54545455 95.1600164,3.54545455 C95.6481493,3.54545455 96.0491095,3.57459178 96.3629092,3.63286713 C96.6767089,3.69114248 96.9614488,3.7785542 97.2171375,3.8951049 L96.3803425,8.33566434 C96.0549206,8.24242378 95.7527476,8.17249441 95.4738145,8.12587413 C95.1948815,8.07925385 94.8694644,8.05594406 94.4975537,8.05594406 C93.8467099,8.05594406 93.1668207,8.28904196 92.4578658,8.75524476 C91.748911,9.22144755 91.1619981,10.0489451 90.6971097,11.2377622 L90.6971097,21.3076923 L85.5717402,21.3076923 Z M99.4146929,21.3076923 L99.4146929,3.96503497 L103.598668,3.96503497 L103.947333,6.16783217 L104.086798,6.16783217 C104.83062,5.46852797 105.644162,4.85664598 106.527451,4.33216783 C107.410739,3.80768969 108.4451,3.54545455 109.630565,3.54545455 C111.513364,3.54545455 112.878953,4.16316399 113.727374,5.3986014 C114.575796,6.63403881 115,8.34730839 115,10.5384615 L115,21.3076923 L109.874631,21.3076923 L109.874631,11.2027972 C109.874631,9.94404965 109.706111,9.08158741 109.369067,8.61538462 C109.032023,8.14918182 108.491598,7.91608392 107.747777,7.91608392 C107.096933,7.91608392 106.539075,8.0617701 106.074187,8.35314685 C105.609298,8.6445236 105.097928,9.05827238 104.540062,9.59440559 L104.540062,21.3076923 L99.4146929,21.3076923 Z" id="veern" fill="#000000"></path>
                    <g id="icon/veern/outline-blue" transform="translate(0.000000, 0.090909)" fill="#2335FF" stroke-width="1">
                        <g id="Outlines">
                            <path d="M12.5,22.2727273 C17.8973282,22.2727273 22.2727273,17.8973282 22.2727273,12.5 C22.2727273,11.4825362 22.1180325,10.4895688 21.8187781,9.54485877 C20.8740681,9.24560396 19.8811007,9.09090909 18.8636364,9.09090909 C13.4663081,9.09090909 9.09090909,13.4663081 9.09090909,18.8636364 C9.09090909,19.8811005 9.24560392,20.8740679 9.54485864,21.8187777 C10.4895685,22.1180324 11.4825359,22.2727273 12.5,22.2727273 Z M6.36363636,18.8636364 C6.36363636,11.960077 11.960077,6.36363636 18.8636364,6.36363636 C20.6673002,6.36363636 22.3817403,6.74564832 23.9304612,7.43317668 C24.6179882,8.98189683 25,10.6963366 25,12.5 C25,19.4035594 19.4035594,25 12.5,25 C10.6963366,25 8.98189683,24.6179882 7.4331762,23.9304602 C6.74564832,22.3817403 6.36363636,20.6673002 6.36363636,18.8636364 Z" id="Combined-Shape" fill-rule="nonzero"></path>
                            <path d="M12.5,22.2727273 C17.8973282,22.2727273 22.2727273,17.8973282 22.2727273,12.5 C22.2727273,7.10267176 17.8973282,2.72727273 12.5,2.72727273 C7.10267176,2.72727273 2.72727273,7.10267176 2.72727273,12.5 C2.72727273,17.8973282 7.10267176,22.2727273 12.5,22.2727273 Z M12.5,25 C5.59644063,25 0,19.4035594 0,12.5 C0,5.59644063 5.59644063,0 12.5,0 C19.4035594,0 25,5.59644063 25,12.5 C25,19.4035594 19.4035594,25 12.5,25 Z" id="Oval" fill-rule="nonzero"></path>
                        </g>
                    </g>
                </g>
            </g>
        </g>
    </g>
</svg>